<svg width="140" height="60.024182042694164" viewBox="0 0 340 60.024182042694164" className="css-1j8o68f">
    <!-- <defs id="SvgjsDefs2141"></defs> -->
    <g id="SvgjsG2142" featurekey="K5GtsI-0" transform="matrix(4.111245155334473,0,0,4.111245155334473,-1.726725274005492,-23.51632189862131)" fill="#07366f">
        <path d="M12.72 6 l0 8.02 c0 3.62 -2.3 6.26 -6.16 6.26 c-3.58 0 -6.14 -2.14 -6.14 -6.1 l2.6 0 c0 2.4 1.16 3.62 3.54 3.62 c2.4 0 3.52 -1.66 3.52 -3.78 l0 -5.56 l-4.22 0 l0 -2.46 l6.86 0 z M21.78 5.720000000000001 c4.82 0 7.22 3.7 7.18 7.36 c-0.04 3.62 -2.26 7.24 -7.18 7.24 s-7.2 -3.54 -7.2 -7.22 s2.36 -7.38 7.2 -7.38 z M21.78 8.12 c-3.3 0 -4.66 2.66 -4.6 5.02 c0.06 2.3 1.3 4.76 4.6 4.76 s4.54 -2.48 4.58 -4.78 c0.04 -2.36 -1.28 -5 -4.58 -5 z M33.42 13.940000000000001 l0 3.6 l4.04 0 c1.08 0 2.62 -0.36 2.62 -1.68 c0 -1.26 -1.54 -1.92 -2.62 -1.92 l-4.04 0 z M33.42 8.4 l0 3.22 l4.04 0 c1.66 0 2.2 -0.7 2.2 -1.5 c0 -0.64 -0.52 -1.72 -2.2 -1.72 l-4.04 0 z M37.46 6 c2.76 0 4.82 1.24 4.82 4.06 c0 1.08 -0.52 2.12 -1.82 2.7 c1.64 0.5 2.24 2.24 2.24 3.12 c0 3.12 -2.34 4.12 -5.24 4.12 l-6.64 0 l0 -14 l6.64 0 z M47.08 13.940000000000001 l0 3.6 l4.04 0 c1.08 0 2.62 -0.36 2.62 -1.68 c0 -1.26 -1.54 -1.92 -2.62 -1.92 l-4.04 0 z M47.08 8.4 l0 3.22 l4.04 0 c1.66 0 2.2 -0.7 2.2 -1.5 c0 -0.64 -0.52 -1.72 -2.2 -1.72 l-4.04 0 z M51.12 6 c2.76 0 4.82 1.24 4.82 4.06 c0 1.08 -0.52 2.12 -1.82 2.7 c1.64 0.5 2.24 2.24 2.24 3.12 c0 3.12 -2.34 4.12 -5.24 4.12 l-6.64 0 l0 -14 l6.64 0 z M68.66 17.4 l0 2.6 l-10.48 0 l0 -14 l10.48 0 l0 2.56 l-7.86 0 l0 3.22 l7.58 0 l0 2.46 l-7.58 0 l0 3.16 l7.86 0 z M83.12 19.82 l0 0.18 l-3.14 0 l-4.08 -4.68 l-2.54 0 l0 4.68 l-2.64 0 l0 -14.02 c2.22 0 4.44 0.02 6.66 0.02 c3.3 0.02 5.04 2.22 5.04 4.64 c0 1.92 -0.88 3.86 -3.54 4.4 z M77.38 8.46 l-4.02 0 l0 4.48 l4.02 0 c1.68 0 2.4 -1.12 2.4 -2.24 s-0.74 -2.24 -2.4 -2.24 z"></path>
    </g>
</svg>