<svg width="288" height="102.60000000000001" viewBox="80 0 218 102.60000000000001" className="css-1j8o68f">
    <g id="SvgjsG1178" featurekey="nameFeature-0" transform="matrix(1.7082321643829346,0,0,1.7082321643829346,98.93285656392254,0.5001072923407719)" fill="#086972">
        <path d="M4.0588 19.412 c1.2128 0 2.1961 0.98324 2.1961 2.196 l0 15.345 c0 5.7668 -4.692 10.459 -10.459 10.459 c-1.2128 0 -2.196 -0.98328 -2.196 -2.196 s0.98328 -2.196 2.196 -2.196 c3.3452 0 6.0668 -2.7215 6.0668 -6.0668 l0 -15.345 c0 -1.2128 0.98328 -2.196 2.196 -2.196 z M2.0302 15.036000000000001 c-0.054884 -0.13176 -0.096016 -0.27176 -0.12348 -0.41176 c-0.030195 -0.14 -0.043908 -0.28551 -0.043908 -0.42824 s0.013711 -0.28824 0.043908 -0.42824 c0.027461 -0.14 0.068632 -0.28 0.12352 -0.41176 s0.12352 -0.26078 0.20312 -0.37883 c0.079608 -0.12078 0.17293 -0.23332 0.27176 -0.33488 c0.10156 -0.10156 0.2141 -0.19215 0.33488 -0.27176 c0.11805 -0.079608 0.24707 -0.14824 0.37883 -0.20312 s0.27176 -0.096056 0.41176 -0.12352 c0.28274 -0.057656 0.57372 -0.057656 0.85644 0 c0.14 0.027461 0.28 0.068632 0.41176 0.12352 s0.26078 0.12352 0.37883 0.20312 c0.12078 0.079608 0.23332 0.1702 0.33488 0.27176 s0.19215 0.2141 0.27176 0.33488 c0.079608 0.11805 0.14824 0.24707 0.20312 0.37883 s0.096056 0.27176 0.12352 0.41176 c0.030195 0.14 0.043908 0.28551 0.043908 0.42824 s-0.013711 0.28824 -0.043908 0.42824 c-0.027461 0.14 -0.068632 0.28 -0.12352 0.41176 s-0.12352 0.26078 -0.20312 0.37883 c-0.079608 0.12078 -0.1702 0.23332 -0.27176 0.33488 s-0.2141 0.19215 -0.33488 0.27176 c-0.11805 0.079608 -0.24707 0.14824 -0.37883 0.20312 s-0.27176 0.096056 -0.41176 0.12352 c-0.14 0.030195 -0.28551 0.043908 -0.42824 0.043908 s-0.28824 -0.013711 -0.42824 -0.043908 c-0.14 -0.027461 -0.28 -0.068632 -0.41176 -0.12352 s-0.26078 -0.12352 -0.37883 -0.20312 c-0.12078 -0.079608 -0.23332 -0.1702 -0.33488 -0.27176 c-0.098828 -0.10156 -0.19215 -0.2141 -0.27176 -0.33488 c-0.079608 -0.11805 -0.14824 -0.24707 -0.20312 -0.37883 z M18.508 19.412 c5.6764 0 10.294 4.6176 10.294 10.294 s-4.6176 10.294 -10.294 10.294 s-10.294 -4.6176 -10.294 -10.294 s4.6176 -10.294 10.294 -10.294 z M18.508 35.608 c3.2543 0 5.902 -2.6476 5.902 -5.902 s-2.6476 -5.902 -5.902 -5.902 s-5.902 2.6476 -5.902 5.902 s2.6476 5.902 5.902 5.902 z M41.015 19.467 c5.6612 0 10.267 4.6056 10.267 10.267 s-4.6056 10.267 -10.267 10.267 c-2.1952 0 -4.23 -0.69476 -5.9008 -1.873 c-0.15676 1.0593 -1.067 1.873 -2.1697 1.873 c-1.2128 0 -2.196 -0.98328 -2.196 -2.196 l0 -23.608 c0 -1.2128 0.98328 -2.196 2.196 -2.196 s2.196 0.98328 2.196 2.196 l0 7.1246 c1.6657 -1.1667 3.6908 -1.8541 5.8744 -1.8541 z M41.015 35.608 c3.2392 0 5.8744 -2.6353 5.8744 -5.8744 s-2.6353 -5.8744 -5.8744 -5.8744 s-5.8744 2.6353 -5.8744 5.8744 s2.6353 5.8744 5.8744 5.8744 z M63.46900000000001 19.467 c5.6612 0 10.267 4.6056 10.267 10.267 s-4.6056 10.267 -10.267 10.267 c-2.1952 0 -4.23 -0.69476 -5.9008 -1.873 c-0.15676 1.0593 -1.067 1.873 -2.1697 1.873 c-1.2128 0 -2.196 -0.98328 -2.196 -2.196 l0 -23.608 c0 -1.2128 0.98328 -2.196 2.196 -2.196 s2.196 0.98328 2.196 2.196 l0 7.1246 c1.6657 -1.1667 3.6908 -1.8541 5.8744 -1.8541 z M63.46900000000001 35.608 c3.2392 0 5.8744 -2.6353 5.8744 -5.8744 s-2.6353 -5.8744 -5.8744 -5.8744 s-5.8744 2.6353 -5.8744 5.8744 s2.6353 5.8744 5.8744 5.8744 z M85.95000000000002 19.412 c5.6764 0 10.294 4.6176 10.294 10.294 c0 1.2128 -0.98328 2.196 -2.196 2.196 l-13.576 0 c0.87292 2.17 2.9995 3.7059 5.4784 3.7059 c1.5765 0 3.0586 -0.6138 4.1732 -1.7286 c0.85784 -0.85756 2.248 -0.85732 3.1058 0 c0.85784 0.85784 0.85756 2.2482 0 3.1058 c-1.9446 1.9443 -4.5296 3.0149 -7.2792 3.0149 c-5.6764 0 -10.294 -4.6176 -10.294 -10.294 s4.6176 -10.294 10.294 -10.294 z M80.47160000000001 27.509999999999998 l10.957 0 c-0.87292 -2.17 -2.9995 -3.7059 -5.4784 -3.7059 s-4.6056 1.5359 -5.4784 3.7059 z M108.48400000000001 19.412 c1.2128 0 2.196 0.98328 2.196 2.196 s-0.98328 2.196 -2.196 2.196 c-3.2543 0 -5.902 2.6476 -5.902 5.902 l0 8.098 c0 1.2128 -0.98328 2.196 -2.196 2.196 s-2.196 -0.98328 -2.196 -2.196 l0 -16.196 c0 -1.2128 0.98328 -2.196 2.196 -2.196 c1.1071 0 2.0201 0.81996 2.1716 1.885 c1.677 -1.1856 3.721 -1.885 5.9264 -1.885 z"></path>
    </g>
</svg>