<svg width="320" height="117.98594308100012" viewBox="0 0 320 117.98594308100012" className="css-1j8o68f">
    <defs id="SvgjsDefs4409"></defs>
    <g id="SvgjsG4410" featurekey="S6ay6y-0" transform="matrix(-0.9075841903686523,0,0,0.9075841903686523,118.06881713867188,-9.075840950012207)" fill="#ea5455">
        <g xmlns="http://www.w3.org/2000/svg">
            <g>
                <path d="M59.8505859,62.9658203c-5.1010742-4.4277344-8.0268555-10.8203125-8.0268555-17.5390625    c0-10.2685966,5.356678-12.6572533,3.8686523-14.2319336c0.1382866,0.0984859-8.253746-6.0146255-8.3955078-6.1176758    c-0.4537201-0.32831-1.0911293-0.2184315-1.4086914,0.2421875c-10.2667236,14.8585129-7.6336174,35.1320839,6.027832,46.9228516    c1.1130562,0.9608688,1.6329956-0.5134506,8.0400391-7.8720703C60.3124847,63.9521484,60.265625,63.3251953,59.8505859,62.9658203    z M45.399353,60.8310547l8.3380127-1.9379883c0.8379517,1.3227539,1.8058472,2.5688477,2.887146,3.7270508l-8.8840332,2.059082    C46.87146,63.4482422,46.0919189,62.1621094,45.399353,60.8310547z M43.0161133,54.9350586l8.0015869-1.859375    c0.4420166,1.3823242,1.0090332,2.7202148,1.6816406,4.0058594l-8.1955566,1.9052734    C43.9189453,57.671875,43.427124,56.3168945,43.0161133,54.9350586z M43.1046753,35.5981445l9.8410645-2.2954102    c-0.855896,1.5532227-1.541626,3.1831055-2.0488281,4.8691406l-8.8606567,2.0585938    C42.2820435,38.6582031,42.6387939,37.1118164,43.1046753,35.5981445z M41.7801514,42.3422852l8.5616455-1.9892578    c-0.3027954,1.4770508-0.4650269,2.9868164-0.4986572,4.5131836l-8.1858521,1.902832    C41.6066666,45.5086937,41.5870476,44.4476814,41.7801514,42.3422852z M41.7947998,48.7895508l8.0769043-1.8774414    c0.085022,1.4350586,0.2964478,2.8496094,0.6201782,4.2333984l-7.9885254,1.855957    C42.1810303,51.6191406,41.9389038,50.2138672,41.7947998,48.7895508z M46.965332,27.3056641l5.5795898,4.0371094    l-8.6643677,2.0214844C44.6976318,31.2583008,45.7216187,29.2275391,46.965332,27.3056641z M52.4711914,70.0595703    c-1.2341919-1.1313477-2.3692017-2.3486328-3.4084473-3.6328125l8.1136475-1.8808594L52.4711914,70.0595703z"></path>
            </g>
            <g>
                <path d="M58.625,28.640625c1.1639175,0,5.8414078-6.4423828,16.4360352-6.4423828    c8.124176,0,12.0724258,3.9174995,13.0986328,3.6894531c0.7236938-0.1662731,0.3097916-0.1390896,6.0126953-9.1162109    c0.2910156-0.46875,0.1484375-1.0830078-0.3178711-1.3759766C88.2216797,11.8662109,81.7231445,10,75.0610352,10    c-9.7202148,0-18.7910156,3.8642578-25.5410156,10.8808594c-0.4229698,0.4404659-0.3554039,1.1488895,0.1342773,1.5039063    C58.27771,28.5391293,58.0205078,28.640625,58.625,28.640625z M75.0610352,12    c5.9526367,0,11.7666016,1.5791016,16.8793945,4.5742188l-4.3344727,6.9736328    c-3.8149414-2.1943359-8.1308594-3.3496094-12.5449219-3.3496094c-6.0830078,0-11.9111328,2.1816406-16.5024414,6.1601563    l-6.7841797-4.9082031C58.050293,15.3466797,66.2739258,12,75.0610352,12z"></path>
            </g>
            <g>
                <path d="M91.5932617,29.1240234c3.6347656,3.6835938,5.9594727,8.5253906,6.5463867,13.6357422    c0.0581055,0.5048828,0.4853516,0.8857422,0.9936523,0.8857422c9.5603638-0.1029663,11.3688431,0.5014305,11.2412109-1.0800781    c-0.7358398-9.1923828-4.9672852-17.6220703-11.9145508-23.734375c-0.452301-0.396265-1.176918-0.3128338-1.5097656,0.2226563    C92.0253448,27.4974022,90.5979919,28.1152821,91.5932617,29.1240234z M98.0141602,21.1308594    c5.7719727,5.4433594,9.3793945,12.6533203,10.2631836,20.5146484h-8.2685547    c-0.7539063-4.9648438-3.0151367-9.6513672-6.4453125-13.3544922L98.0141602,21.1308594z"></path>
            </g>
            <g>
                <path d="M110.3720703,48.2910156c0.0468521-0.5805779-0.4124451-1.0800781-0.996582-1.0800781    c-9.2755737,0.3161316-11.0489807-0.7033081-11.2333984,0.8857422    c-1.3510742,11.71875-11.2719727,20.5566406-23.0766602,20.5566406c-3.7470703,0-7.4760742-0.9208984-10.7841797-2.6630859    c-1.2688637-0.6727219-1.4457092,0.9232712-7.9765625,8.1425781c-0.398304,0.4681091-0.2853928,1.1812057,0.2373047,1.5009766    c3.940918,2.4213867,8.2423096,4.0087891,12.793457,4.7460938v6.9707031    c-1.5764847,0.1339722-2.7683868-0.3792267-3.1586914,0.6435547C58.853447,107.2122803,65.5155029,140,75,140    c9.3937454,0,16.1852875-32.6973495,8.8227539-52.0058594c-0.1479492-0.3876953-0.5195313-0.6435547-0.9345703-0.6435547    h-2.2226563v-6.9545898C96.6384888,77.8613281,109.0699463,64.4995117,110.3720703,48.2910156z M84.6621094,101.3457031    H65.3378906c0.1083984-1.1972656,0.2480469-2.3671875,0.4169922-3.4980469h18.4902344    C84.4140625,98.9785156,84.5537109,100.1484375,84.6621094,101.3457031z M75,138    c-5.7083359,0-10.7885284-18.7377853-9.8134766-34.6542969h19.6269531C85.794693,119.3628082,80.6613541,138,75,138z     M83.9077148,95.8476563H66.0922852c0.4453125-2.3720703,1.0205078-4.5498047,1.7158203-6.4970703h14.3833008    C82.8867188,91.2958984,83.4619141,93.4736328,83.9077148,95.8476563z M64.0654297,68.1220703    c3.4121094,1.6582031,7.1977539,2.53125,11,2.53125c12.5219727,0,23.0922852-9.15625,24.9458008-21.4423828h8.2626953    c-1.7109375,15.078125-13.6362305,27.3300781-28.7470703,29.3388672    c-1.4262695,0.1992188-2.9272461,0.3007813-4.4614258,0.3007813c-5.783226,0-11.4137878-1.4552917-16.4672852-4.3242188    L64.0654297,68.1220703z M78.6655273,80.6689453v6.6787109h-7.3300781V80.65625    c0.8271713,0.0857315,2.2929153,0.1805725,3.5390625,0.1879883c0.0634155,0.0004883,0.1275635,0.0063477,0.190918,0.0063477    c0.0899658,0,0.1766968-0.0083008,0.2664795-0.0087891c0.6308594-0.0043945,1.2556152-0.0258789,1.8742065-0.0625    c0.2307129-0.0136719,0.4564209-0.0336914,0.6846313-0.0517578    C78.1486206,80.7070313,78.4110107,80.6948242,78.6655273,80.6689453z"></path>
            </g>
            <g>
                <path d="M129.0913086,44.3339844h-11.6933594c-0.5522461,0-1,0.4472656-1,1s0.4477539,1,1,1h11.6933594    c0.5522461,0,1-0.4472656,1-1S129.6435547,44.3339844,129.0913086,44.3339844z"></path>
            </g>
            <g>
                <path d="M113.7944336,32.3476563c0.1591797,0.3847656,0.5317383,0.6171875,0.9243164,0.6171875    c0.1274414,0,0.2568359-0.0244141,0.3818359-0.0761719l5.4018555-2.2363281    c0.5102539-0.2109375,0.7529297-0.7958984,0.5415039-1.3066406c-0.2109375-0.5097656-0.796875-0.7529297-1.3061523-0.5410156    l-5.4018555,2.2363281C113.8256836,31.2519531,113.5830078,31.8369141,113.7944336,32.3476563z"></path>
            </g>
            <g>
                <path d="M107.8320313,21.3457031l8.2680664-8.265625c0.390625-0.390625,0.390625-1.0234375,0-1.4140625    s-1.0234375-0.390625-1.4140625,0l-8.2680664,8.265625c-0.390625,0.390625-0.390625,1.0234375,0,1.4140625    C106.8085861,21.7363167,107.4413986,21.7363396,107.8320313,21.3457031z"></path>
            </g>
            <g>
                <path d="M107.9199219,69.5078125c-0.9358902-0.9358902-2.3493652,0.4787598-1.4140625,1.4140625l8.2680664,8.265625    c0.1953125,0.1953125,0.4511719,0.2929688,0.7070313,0.2929688s0.5117188-0.0976563,0.7070313-0.2929688    c0.390625-0.390625,0.390625-1.0234375,0-1.4140625L107.9199219,69.5078125z"></path>
            </g>
            <g>
                <path d="M120.5024414,60.1132813l-5.2871094-2.1884766c-0.5112305-0.2109375-1.0952148,0.03125-1.3061523,0.5410156    c-0.2114258,0.5107422,0.03125,1.0957031,0.5415039,1.3066406l5.2871094,2.1884766    c0.125,0.0517578,0.2543945,0.0761719,0.3818359,0.0761719c0.3925781,0,0.7651367-0.2324219,0.9243164-0.6171875    C121.2553711,60.9091797,121.0126953,60.3242188,120.5024414,60.1132813z"></path>
            </g>
            <g>
                <path d="M33.6020508,45.3339844c0-0.5527344-0.4477539-1-1-1H20.9086914c-0.5522461,0-1,0.4472656-1,1s0.4477539,1,1,1h11.6933594    C33.1542969,46.3339844,33.6020508,45.8867188,33.6020508,45.3339844z"></path>
            </g>
            <g>
                <path d="M29.3828125,30.6044922l5.5166016,2.2841797c0.125,0.0517578,0.2543945,0.0761719,0.3818359,0.0761719    c0.3925781,0,0.7651367-0.2324219,0.9243164-0.6171875c0.2114258-0.5107422-0.0307617-1.0957031-0.5415039-1.3066406    l-5.5166016-2.2841797c-0.5112305-0.2119141-1.0952148,0.03125-1.3061523,0.5410156    C28.6298828,29.8085938,28.8720703,30.3935547,29.3828125,30.6044922z"></path>
            </g>
            <g>
                <path d="M42.1679688,21.3457031c0.1953125,0.1953125,0.4511719,0.2929688,0.7070313,0.2929688    s0.5117188-0.0976563,0.7070313-0.2929688c0.390625-0.390625,0.390625-1.0234375,0-1.4140625l-8.2680664-8.265625    c-0.390625-0.390625-1.0234375-0.390625-1.4140625,0s-0.390625,1.0234375,0,1.4140625L42.1679688,21.3457031z"></path>
            </g>
            <g>
                <path d="M42.0800781,69.5078125l-8.2680664,8.265625c-0.390625,0.390625-0.390625,1.0234375,0,1.4140625    c0.1953125,0.1953125,0.4511719,0.2929688,0.7070313,0.2929688s0.5117188-0.0976563,0.7070313-0.2929688l8.2680664-8.265625    c0.390625-0.390625,0.390625-1.0234375,0-1.4140625S42.4707031,69.1171875,42.0800781,69.5078125z"></path>
            </g>
            <g>
                <path d="M36.0908203,58.4658203c-0.2114258-0.5097656-0.7963867-0.7519531-1.3061523-0.5410156l-5.4018555,2.2363281    c-0.5102539,0.2109375-0.7529297,0.7958984-0.5415039,1.3066406c0.1591797,0.3847656,0.5317383,0.6171875,0.9243164,0.6171875    c0.1274414,0,0.2568359-0.0244141,0.3818359-0.0761719l5.4018555-2.2363281    C36.0595703,59.5615234,36.3022461,58.9765625,36.0908203,58.4658203z"></path>
            </g>
            <g>
                <path d="M75,120.4228516c-2.7451172,0-4.9780273,2.2324219-4.9780273,4.9765625    c0,2.7431641,2.2329102,4.9755859,4.9780273,4.9755859s4.9780273-2.2324219,4.9780273-4.9755859    C79.9780273,122.6552734,77.7451172,120.4228516,75,120.4228516z M75,128.375    c-1.6420898,0-2.9780273-1.3349609-2.9780273-2.9755859c0-1.6416016,1.3359375-2.9765625,2.9780273-2.9765625    s2.9780273,1.3349609,2.9780273,2.9765625C77.9780273,127.0400391,76.6420898,128.375,75,128.375z"></path>
            </g>
        </g>
    </g>
    <g id="SvgjsG4411" featurekey="j5pGhi-0" transform="matrix(2.1400184631347656,0,0,2.1400184631347656,118.87147183780648,33.17823337127194)" fill="#01658d">
        <path d="M6.9141 9.648 l-0.87891 0.91797 q-1.11328125 -1.07421875 -2.158203125 -1.07421875 q-0.673828125 0 -1.15234375 0.439453125 t-0.47852 1.0449 q0 0.5078125 0.400390625 0.9765625 q0.390625 0.498046875 1.650390625 1.142578125 q1.54296875 0.791015625 2.08984375 1.533203125 q0.537109375 0.751953125 0.537109375 1.689453125 q0 1.30859375 -0.9228515625 2.221679688 t-2.3096 0.91309 q-0.927734375 0 -1.772460938 -0.3955078125 t-1.3916 -1.1084 l0.86914 -0.98633 q1.0546875 1.19140625 2.236328125 1.19140625 q0.8203125 0 1.401367188 -0.5322265625 t0.58105 -1.2451 q0 -0.595703125 -0.380859375 -1.0546875 t-1.7285 -1.1523 q-1.455078125 -0.732421875 -1.97265625 -1.474609375 q-0.52734375 -0.72265625 -0.52734375 -1.66015625 q0 -1.220703125 0.8349609375 -2.026367188 t2.0947 -0.80566 q1.474609375 0 2.978515625 1.4453125 z M14.4043 8.203 q2.470703125 0 4.1015625 1.787109375 q1.50390625 1.630859375 1.50390625 3.876953125 q0.01953125 5.546875 0 5.634765625 l-1.4551 0 l0 -2.4316 q-1.142578125 2.12890625 -4.150390625 2.3828125 q-2.4609375 0 -4.018554688 -1.674804688 t-1.5576 -3.9111 q0 -2.2265625 1.474609375 -3.8671875 q1.630859375 -1.796875 4.1015625 -1.796875 z M14.4043 9.551 q-1.708984375 0 -2.939453125 1.26953125 t-1.2305 3.0664 q0 1.162109375 0.6298828125 2.236328125 t2.1338 1.8164 q3.76953125 0.83984375 5.361328125 -3.427734375 q0.087890625 -1.3671875 -0.29296875 -2.6171875 q-0.2734375 -0.56640625 -0.751953125 -1.07421875 q-1.201171875 -1.26953125 -2.91015625 -1.26953125 z M21.66992375 8.75 l1.4648 0 l3.584 7.793 l3.5547 -7.793 l1.4746 0 l-4.9023 10.713 l-0.24414 0 z M42.861453125 15.6348 l1.1523 0.61523 q-0.556640625 1.123046875 -1.30859375 1.806640625 t-1.6895 1.04 t-2.1191 0.35645 q-2.6171875 0 -4.091796875 -1.713867188 t-1.4746 -3.8721 q0 -2.041015625 1.25 -3.6328125 q1.58203125 -2.03125 4.248046875 -2.03125 q2.724609375 0 4.365234375 2.080078125 q1.162109375 1.46484375 1.171875 3.65234375 l-9.6191 0 q0.0390625 1.875 1.19140625 3.071289063 t2.8418 1.1963 q0.8203125 0 1.591796875 -0.2880859375 t1.3135 -0.75684 t1.1768 -1.5234 z M42.861453125 12.7539 q-0.2734375 -1.103515625 -0.80078125 -1.762695313 t-1.3965 -1.0645 t-1.8262 -0.40527 q-1.572265625 0 -2.705078125 1.015625 q-0.8203125 0.7421875 -1.240234375 2.216796875 l7.9688 0 z M46.894490625 4.901999999999999 l4.5996 0 q1.71875 0 2.646484375 0.41015625 t1.46 1.2598 t0.53223 1.875 q0 0.966796875 -0.4736328125 1.7578125 t-1.3916 1.2793 q1.142578125 0.390625 1.748046875 0.9033203125 t0.94727 1.2451 t0.3418 1.5918 q0 1.748046875 -1.279296875 2.954101563 t-3.418 1.2061 l-5.7129 0 l0 -14.482 z M48.310590625 6.318 l0 4.6387 l2.5684 0 q1.50390625 0 2.211914063 -0.283203125 t1.123 -0.88379 t0.41504 -1.3428 q0 -0.99609375 -0.693359375 -1.5625 t-2.207 -0.56641 l-3.418 0 z M48.310590625 12.412099999999999 l0 5.5566 l3.5352 0 q1.58203125 0 2.319335938 -0.3125 t1.1865 -0.9668 t0.44922 -1.4355 q0 -0.95703125 -0.6298828125 -1.6796875 t-1.7334 -0.98633 q-0.7421875 -0.17578125 -2.568359375 -0.17578125 l-2.5586 0 z M64.746096875 8.203 q2.470703125 0 4.1015625 1.787109375 q1.50390625 1.630859375 1.50390625 3.876953125 q0.01953125 5.546875 0 5.634765625 l-1.4551 0 l0 -2.4316 q-1.142578125 2.12890625 -4.150390625 2.3828125 q-2.4609375 0 -4.018554688 -1.674804688 t-1.5576 -3.9111 q0 -2.2265625 1.474609375 -3.8671875 q1.630859375 -1.796875 4.1015625 -1.796875 z M64.746096875 9.551 q-1.708984375 0 -2.939453125 1.26953125 t-1.2305 3.0664 q0 1.162109375 0.6298828125 2.236328125 t2.1338 1.8164 q3.76953125 0.83984375 5.361328125 -3.427734375 q0.087890625 -1.3671875 -0.29296875 -2.6171875 q-0.2734375 -0.56640625 -0.751953125 -1.07421875 q-1.201171875 -1.26953125 -2.91015625 -1.26953125 z M73.017540625 15.3809 l-0.019531 -1.1426 q-0.029296875 -0.83984375 0.068359375 -1.42578125 q0.21484375 -1.845703125 0.9375 -2.705078125 q0.703125 -0.751953125 1.435546875 -1.162109375 q1.2109375 -0.517578125 2.763671875 -0.48828125 q1.2109375 0 2.241210938 0.6103515625 t1.4697 1.6406 t0.43945 3.2275 l0 5.5078 l-1.3672 0 l0 -5.1074 q0 -1.85546875 -0.15625 -2.48046875 q-0.244140625 -1.064453125 -0.966796875 -1.508789063 t-2.1387 -0.44434 q-1.25 0 -2.2265625 0.72265625 t-0.9082 1.9727 q-0.185546875 0.80078125 -0.185546875 2.919921875 l0 3.9258 l-1.3867 0 l0 -4.0625 z M85.273465625 4.59 l1.3867 0 l0 8.457 l4.9512 -4.3164 l2.0313 0 l-4.4824 4.0723 l4.8242 6.6406 l-1.9531 0 l-4.2188 -5.7617 l-1.1523 0.94727 l0 4.8145 l-1.3867 0 l0 -14.854 z"></path>
    </g>
</svg>