<svg width="40" height="40" viewBox="0 0 40 40" fill="none"
    xmlns="http://www.w3.org/2000/svg" class="rounded text-primary">
    <path d="M40 0H0V40H40V0Z" fill=""></path>
    <path d="M14.6 31.7C14.8 31.7 15 31.5 15 31.3V28.9C15 28.7 14.8 28.5 14.6 28.5H11.7C11.5 28.5 11.3 28.7 11.3 28.9V31.3C11.3 31.5 11.5 31.7 11.7 31.7C11.9 31.7 12.1 31.5 12.1 31.3V29.2H14.3V31.3C14.3 31.5 14.4 31.7 14.6 31.7Z" fill="#5D2CB2"></path>
    <path d="M19.2 31.7C19.4 31.7 19.6 31.5 19.6 31.3V26.5C19.6 26.3 19.4 26.1 19.2 26.1H16.3C16.1 26.1 15.9 26.3 15.9 26.5V31.3C15.9 31.5 16.1 31.7 16.3 31.7C16.5 31.7 16.7 31.5 16.7 31.3V26.9H18.9V31.3C18.9 31.5 19 31.7 19.2 31.7Z" fill="#5D2CB2"></path>
    <path d="M23.8 31.7C24 31.7 24.2 31.5 24.2 31.3V21.6C24.2 21.4 24 21.2 23.8 21.2H20.9C20.7 21.2 20.5 21.4 20.5 21.6V31.3C20.5 31.5 20.7 31.7 20.9 31.7C21.1 31.7 21.3 31.5 21.3 31.3V22H23.5V31.3C23.5 31.5 23.6 31.7 23.8 31.7Z" fill="#5D2CB2"></path>
    <path d="M25.2 14.4V31.3C25.2 31.5 25.4 31.7 25.6 31.7C25.8 31.7 26 31.5 26 31.3V14.8H28.2V31.3C28.2 31.5 28.4 31.7 28.6 31.7C28.8 31.7 29 31.5 29 31.3V14.4C29 14.2 28.8 14 28.6 14H25.7C25.3 14 25.2 14.2 25.2 14.4Z" fill="#5D2CB2"></path>
    <path d="M30.1 32.4H9.9C9.7 32.4 9.5 32.6 9.5 32.8C9.5 33 9.7 33.2 9.9 33.2H30.2C30.4 33.2 30.6 33 30.6 32.8C30.6 32.6 30.3 32.4 30.1 32.4Z" fill="#5D2CB2"></path>
    <path d="M21.5 10.6L23.1 10.8C22 15.7 19.4 18.9 17.3 20.8C16.1 21.9 14.9 22.7 14.2 23.1C13.4 23.6 12.8 23.8 12.8 23.8C12.6 23.9 12.5 24.1 12.6 24.3C12.7 24.4 12.8 24.5 12.9 24.5H13C13 24.5 13.6 24.3 14.4 23.8C15.2 23.3 16.4 22.6 17.7 21.4C19.1 20.1 20.4 18.7 21.3 17.1C22.5 15.1 23.4 13 23.8 10.6C23.8 10.6 23.8 10.6 23.8 10.5C23.8 10.3 23.7 10.2 23.5 10.1H23.4L22.1 9.90001L23.8 7.80001L25.1 10.9C25.2 11 25.3 11.1 25.4 11.1H25.5C25.7 11 25.8 10.8 25.7 10.6L24.2 6.90001C24.2 6.80001 24 6.70001 23.9 6.70001C23.8 6.70001 23.6 6.70001 23.6 6.80001L21.3 10C21.2 10.1 21.2 10.2 21.2 10.4C21.3 10.5 21.4 10.6 21.5 10.6Z" fill="#5D2CB2"></path>
    <path d="M14.6 31.7C14.8 31.7 15 31.5 15 31.3V28.9C15 28.7 14.8 28.5 14.6 28.5H11.7C11.5 28.5 11.3 28.7 11.3 28.9V31.3C11.3 31.5 11.5 31.7 11.7 31.7C11.9 31.7 12.1 31.5 12.1 31.3V29.2H14.3V31.3C14.3 31.5 14.4 31.7 14.6 31.7Z" fill="white"></path>
    <path d="M19.2 31.7C19.4 31.7 19.6 31.5 19.6 31.3V26.5C19.6 26.3 19.4 26.1 19.2 26.1H16.3C16.1 26.1 15.9 26.3 15.9 26.5V31.3C15.9 31.5 16.1 31.7 16.3 31.7C16.5 31.7 16.7 31.5 16.7 31.3V26.9H18.9V31.3C18.9 31.5 19 31.7 19.2 31.7Z" fill="white"></path>
    <path d="M23.8 31.7C24 31.7 24.2 31.5 24.2 31.3V21.6C24.2 21.4 24 21.2 23.8 21.2H20.9C20.7 21.2 20.5 21.4 20.5 21.6V31.3C20.5 31.5 20.7 31.7 20.9 31.7C21.1 31.7 21.3 31.5 21.3 31.3V22H23.5V31.3C23.5 31.5 23.6 31.7 23.8 31.7Z" fill="white"></path>
    <path d="M25.2 14.4V31.3C25.2 31.5 25.4 31.7 25.6 31.7C25.8 31.7 26 31.5 26 31.3V14.8H28.2V31.3C28.2 31.5 28.4 31.7 28.6 31.7C28.8 31.7 29 31.5 29 31.3V14.4C29 14.2 28.8 14 28.6 14H25.7C25.3 14 25.2 14.2 25.2 14.4Z" fill="white"></path>
    <path d="M30.1 32.4H9.9C9.7 32.4 9.5 32.6 9.5 32.8C9.5 33 9.7 33.2 9.9 33.2H30.2C30.4 33.2 30.6 33 30.6 32.8C30.6 32.6 30.3 32.4 30.1 32.4Z" fill="white"></path>
    <path d="M21.5 10.6L23.1 10.8C22 15.7 19.4 18.9 17.3 20.8C16.1 21.9 14.9 22.7 14.2 23.1C13.4 23.6 12.8 23.8 12.8 23.8C12.6 23.9 12.5 24.1 12.6 24.3C12.7 24.4 12.8 24.5 12.9 24.5H13C13 24.5 13.6 24.3 14.4 23.8C15.2 23.3 16.4 22.6 17.7 21.4C19.1 20.1 20.4 18.7 21.3 17.1C22.5 15.1 23.4 13 23.8 10.6C23.8 10.6 23.8 10.6 23.8 10.5C23.8 10.3 23.7 10.2 23.5 10.1H23.4L22.1 9.90001L23.8 7.80001L25.1 10.9C25.2 11 25.3 11.1 25.4 11.1H25.5C25.7 11 25.8 10.8 25.7 10.6L24.2 6.90001C24.2 6.80001 24 6.70001 23.9 6.70001C23.8 6.70001 23.6 6.70001 23.6 6.80001L21.3 10C21.2 10.1 21.2 10.2 21.2 10.4C21.3 10.5 21.4 10.6 21.5 10.6Z" fill="white"></path>
</svg>