<svg width="40" height="40" viewBox="0 0 40 40" fill="none"
    xmlns="http://www.w3.org/2000/svg" class="rounded text-brand-secondary">
    <path d="M40 0H0V40H40V0Z" fill=""></path>
    <path d="M30.2 24.1C29.7 23.5 29 23.2 28.3 23.2C28.4 22.4 28.2 21.6 27.6 21C27.2 20.6 26.6 20.3 25.9 20.3C26.1 19.5 25.8 18.6 25.2 18C24.9 17.7 24.5 17.5 24.1 17.3L29 12.4C29.4 12 29.7 11.4 29.7 10.9C29.7 10.8 29.7 10.7 29.7 10.6C29.7 10.5 29.7 10.5 29.7 10.4C29.7 9.79997 29.4 9.19998 29 8.79998C28.6 8.39998 28 8.09998 27.4 8.09998C27.3 8.09998 27.3 8.09998 27.2 8.09998C27.1 8.09998 27 8.09998 26.9 8.09998C26.3 8.19998 25.8 8.39998 25.4 8.79998L17.3 16.9C16.9 15.4 16.2 14 15.3 12.7L14.1 11C13.9 10.7 13.6 10.4 13.2 10.2C12.8 9.99997 12.3 9.89997 11.9 9.89997C11.4 9.89997 10.9 9.99998 10.4 10.3C10.2 10.4 9.99998 10.5 9.89998 10.7C9.79998 10.8 9.69998 10.9 9.69998 11C9.69998 11 9.69998 11.1 9.59998 11.1C9.39998 11.6 9.29998 12.1 9.59998 12.6L11.1 15.4C11.4 15.9 11.6 16.4 11.7 17C11.9 17.9 12 18.9 11.8 19.9L10.8 24C10.7 24.6 10.6 25.2 10.5 25.8C10.2 27.2 10.6 28.6 11.4 29.8C11.8 30.4 12.3 30.9 12.8 31.4C13.1 31.7 13.4 32 13.6 32.2C14.9 33.5 16 34.7 17.7 35.4C18.3 35.6 19 35.8 19.7 35.8C21.1 35.8 22.5 35.3 23.5 34.3L23.6 34.2L25.2 32.6C27.3 30.5 29.1 28.6 29.8 27.8C29.9 27.7 29.9 27.7 30 27.6L30.1 27.5C31.1 26.4 30.9 25 30.2 24.1ZM29.6 26.9L29.5 27C29.4 27.1 29.4 27.1 29.3 27.2C28.6 27.9 26.7 29.9 24.7 32L23.1 33.6L23 33.7C22.1 34.5 20.9 35 19.7 35C19.1 35 18.5 34.9 18 34.7C16.5 34.1 15.4 33 14.2 31.7C13.9 31.4 13.7 31.1 13.4 30.9C12.9 30.4 12.5 29.9 12.1 29.4C11.4 28.4 11.1 27.2 11.3 26C11.4 25.3 11.5 24.8 11.6 24.2L12.3 19.8C12.5 18.7 12.4 17.6 12.2 16.6C12.1 16 11.8 15.4 11.6 14.9L9.99998 11.9C9.89998 11.7 9.89998 11.4 9.99998 11.1C9.99998 11.1 9.99998 11.1 9.99998 11C9.99998 10.9 10.1 10.9 10.1 10.8C10.2 10.7 10.3 10.6 10.4 10.5C10.8 10.3 11.2 10.2 11.6 10.2C12 10.2 12.3 10.3 12.6 10.4C12.9 10.5 13.1 10.7 13.2 10.9L14.4 12.6C15.4 14 16.1 15.5 16.5 17.1C16.6 17.4 16.9 17.5 17.1 17.3L25.6 8.79998C25.9 8.49998 26.3 8.29998 26.7 8.29998C26.8 8.29998 26.8 8.29998 26.9 8.29998H27C27.4 8.29998 27.9 8.49998 28.2 8.79998C28.5 9.09998 28.7 9.49998 28.7 9.99998V10.1C28.7 10.2 28.7 10.2 28.7 10.3C28.7 10.7 28.5 11.1 28.2 11.4L20.6 19C20.4 19.2 20.4 19.4 20.6 19.6C20.8 19.8 21 19.8 21.2 19.6L23.2 17.6C23.6 17.6 24 17.8 24.4 18.1C24.9 18.6 25.1 19.4 24.8 20.1L22.9 22C22.7 22.2 22.7 22.4 22.9 22.6C23.1 22.8 23.3 22.8 23.5 22.6L25.5 20.6C26 20.6 26.5 20.8 26.8 21.1C27.3 21.6 27.5 22.4 27.2 23.1L25.3 25C25.1 25.2 25.1 25.4 25.3 25.6C25.5 25.8 25.7 25.8 25.9 25.6L27.9 23.6C28 23.6 28.1 23.6 28.2 23.6C28.6 23.6 29.1 23.8 29.4 24.2C30.2 25.2 30.3 26.2 29.6 26.9Z" fill="white" stroke="white" stroke-width="0.5"></path>
    <path d="M19.9999 10.2C19.8999 10.2 19.7999 10.2 19.6999 10.1C19.4999 9.89999 19.4999 9.69999 19.6999 9.49999L22.2999 6.99999C22.3999 6.89999 22.4999 6.89999 22.5999 6.89999C22.6999 6.89999 22.7999 6.89999 22.8999 6.99999C23.0999 7.19999 23.0999 7.39999 22.8999 7.59999L20.2999 10.2C20.1999 10.2 20.0999 10.2 19.9999 10.2Z" fill="white" stroke="white" stroke-width="0.5"></path>
    <path d="M18.6 8.69999C18.4 8.69999 18.2 8.49999 18.2 8.29999V4.69999C18.2 4.49999 18.4 4.29999 18.6 4.29999C18.8 4.29999 19 4.49999 19 4.69999V8.29999C19 8.59999 18.8 8.69999 18.6 8.69999Z" fill="white" stroke="white" stroke-width="0.5"></path>
    <path d="M17.0999 10.2C16.9999 10.2 16.8999 10.2 16.7999 10.1L14.1999 7.49999C13.9999 7.29999 13.9999 7.09999 14.1999 6.89999C14.2999 6.79999 14.3999 6.79999 14.4999 6.79999C14.5999 6.79999 14.6999 6.79999 14.7999 6.89999L17.3999 9.49999C17.4999 9.59999 17.4999 9.69999 17.4999 9.79999C17.4999 9.89999 17.4999 9.99999 17.3999 10.1C17.2999 10.2 17.1999 10.2 17.0999 10.2Z" fill="white" stroke="white" stroke-width="0.5"></path>
</svg>