<svg width="40" height="40" viewBox="0 0 40 40" fill="none"
    xmlns="http://www.w3.org/2000/svg" class="rounded text-primary">
    <path d="M40 0H0V40H40V0Z" fill=""></path>
    <path d="M11.4 9.49999C11.4 7.79999 16.2 6.39999 22.2 6.39999C28.2 6.39999 33 7.79999 33 9.49999" stroke="white" stroke-width="1.0506" stroke-miterlimit="10" stroke-linecap="round" stroke-linejoin="round"></path>
    <path d="M33.1 16C33.1 17.7 28.3 19.1 22.3 19.1C19.5 19.1 16.9 18.8 14.9 18.3" stroke="white" stroke-width="1.0506" stroke-miterlimit="10" stroke-linecap="round" stroke-linejoin="round"></path>
    <path d="M33.1 22.5C33.1 24.2 28.3 25.6 22.3 25.6C20.6 25.6 18.9 25.5 17.5 25.3" stroke="white" stroke-width="1.0506" stroke-miterlimit="10" stroke-linecap="round" stroke-linejoin="round"></path>
    <path d="M27.7001 28.2C27.5001 28.2 27.4001 28.3 27.2001 28.3" stroke="white" stroke-width="1.0506" stroke-miterlimit="10" stroke-linecap="round" stroke-linejoin="round"></path>
    <path d="M29.7001 27.8C29.5001 27.8 29.4001 27.9 29.2001 27.9" stroke="white" stroke-width="1.0506" stroke-miterlimit="10" stroke-linecap="round" stroke-linejoin="round"></path>
    <path d="M11.4 12V9.5C11.4 11.2 16.2 12.6 22.2 12.6C28.2 12.6 33 11.2 33 9.5V29C33 30.7 28.2 32.1 22.2 32.1C19.5 32.1 17.1 31.8 15.2 31.4" stroke="white" stroke-width="1.0506" stroke-miterlimit="10" stroke-linecap="round" stroke-linejoin="round"></path>
    <path d="M11.4 18.8C10.3 18.8 9.40002 17.7 9.40002 16.3C9.40002 14.9 10.3 13.8 11.4 13.8C12.5 13.8 13.4 14.9 13.4 16.3C13.4 17.7 12.6 18.8 11.4 18.8Z" stroke="white" stroke-width="1.0506" stroke-miterlimit="10" stroke-linecap="round" stroke-linejoin="round"></path>
    <path d="M9 27.9C7.8 27.4 7 26.3 7 24.9V23.4C7 21.6 8.4 20.2 10.2 20.2H12.8C14.6 20.2 16 21.6 16 23.4V25C16 26.4 15.2 27.5 14 28" stroke="white" stroke-width="1.0506" stroke-miterlimit="10" stroke-linecap="round" stroke-linejoin="round"></path>
    <path d="M11.4 33.8V27.9" stroke="white" stroke-width="1.0506" stroke-miterlimit="10" stroke-linecap="round" stroke-linejoin="round"></path>
    <path d="M9 23V33.8C9 33.8 10.3 34.9 11.4 33.8C12.5 34.9 13.8 33.8 13.8 33.8V23" stroke="white" stroke-width="1.0506" stroke-miterlimit="10" stroke-linecap="round" stroke-linejoin="round"></path>
</svg>