<svg width="90" height="121" viewBox="0 0 90 121" className="css-1j8o68f">
    <defs id="SvgjsDefs5285"></defs>
    <g id="SvgjsG5286" featurekey="rootContainer" transform="matrix(1,0,0,1,0,0)" fill="#086972">
        <rect xmlns="http://www.w3.org/2000/svg" width="90" height="121" rx="10" ry="10"></rect>
    </g>
    <g id="SvgjsG5287" featurekey="nameLeftFeature-0" transform="matrix(1,0,0,1,20,54.733208656311035)" fill="#086972">
        <path d=""></path>
    </g>
    <g id="SvgjsG5288" featurekey="nameRightFeature-0" transform="matrix(4.697694778442383,0,0,4.697694778442383,27.302437875385674,-9.439471645909375)" fill="#ffffff">
        <path d="M9.0198 6.445 c0.18707 3.3666 0.0958 6.7216 -0.25376 10.024 c-0.046602 0.4144 -0.08918 0.81712 -0.1468 1.2536 c-0.057422 0.4341 -0.12818 0.89024 -0.23624 1.3614 c-0.10783 0.47074 -0.2553 0.958 -0.46504 1.4383 c-0.10465 0.2358 -0.22944 0.48622 -0.37202 0.71904 c-0.14406 0.23262 -0.30146 0.45592 -0.47814 0.6665 c-0.35338 0.42012 -0.7788 0.79618 -1.2824 1.087 c-0.2536 0.14322 -0.5252 0.26376 -0.80994 0.3538 c-0.2875 0.086446 -0.57838 0.14131 -0.9074 0.15889 c-0.63538 0.020332 -1.2241 -0.13602 -1.7415 -0.41842 c-0.5129 -0.28602 -0.97454 -0.71186 -1.2561 -1.2851 c-0.059746 -0.12521 -0.081562 -0.24936 -0.065254 -0.36524 c0.012285 -0.11377 0.055294 -0.21356 0.12521 -0.29744 c0.13516 -0.16715 0.34532 -0.25444 0.5667 -0.29534 c0.22138 -0.04088 0.45632 -0.042148 0.64086 -0.03875 c0.089824 0.0029688 0.17393 0.0059376 0.2411 0.012715 c0.0625 0.0082618 0.11525 0.018652 0.1466 0.043222 c0.1142 0.12797 0.29958 0.2358 0.50824 0.29258 c0.20954 0.055938 0.43472 0.050644 0.59892 -0.0042188 c0.34088 -0.11016 0.71248 -0.4468 0.94318 -0.90652 c0.058886 -0.1142 0.10824 -0.23518 0.15146 -0.357 c0.041954 -0.1233 0.070762 -0.24406 0.1017 -0.38516 c0.055938 -0.27668 0.08539 -0.57498 0.093438 -0.89742 c0.0082618 -0.32244 -0.0042382 -0.66692 -0.027324 -1.0336 c-0.022676 -0.3646 -0.056992 -0.76376 -0.088144 -1.1508 c-0.27138 -3.111 -0.7864 -6.176 -1.541 -9.154 c-0.17563 -0.46714 5.5752 -1.3877 5.5536 -0.82202 z"></path>
    </g>
</svg>